<svg width="303" height="251" xmlns="http://www.w3.org/2000/svg">
 <!-- Created with Method Draw - http://github.com/duopixel/Method-Draw/ -->

 <g>
  <title>background</title>
  <rect fill="#fff" id="canvas_background" height="253" width="305" y="-1" x="-1"/>
  <g display="none" overflow="visible" y="0" x="0" height="100%" width="100%" id="canvasGrid">
   <rect fill="url(#gridpattern)" stroke-width="0" y="0" x="0" height="100%" width="100%"/>
  </g>
 </g>
 <g>
  <title>Layer 1</title>
  <g stroke="null" id="svg_21">
   <path stroke="null" id="svg_4" fill="#f797bc" d="m242.361033,112.00056c0,6.303074 -0.861879,12.422333 -2.489461,18.268137l0,0.003401c-0.824405,2.97056 -1.84742,5.869634 -3.056551,8.685876l0,0.003404c-6.70018,15.640247 -19.058792,28.709337 -34.789978,37.137643c-0.039971,0.021559 -0.079943,0.043118 -0.119914,0.063541c-1.610093,0.862347 -3.257657,1.672498 -4.941448,2.434994c-3.461261,1.569246 -7.067416,2.919497 -10.785993,4.033741c-3.397557,1.016661 -6.888796,1.839294 -10.464973,2.446343c-4.927707,0.843056 -10.012799,1.283306 -15.212809,1.283306c-1.26534,0 -2.525684,-0.027232 -3.778534,-0.078292c-1.593852,-0.066946 -3.173967,-0.173602 -4.744086,-0.322244c-11.256906,-1.056375 -21.8318,-4.182382 -31.265015,-8.95706c-4.54673,-2.303374 -8.829899,-4.989129 -12.793298,-8.009613c-1.961092,-1.49322 -3.838491,-3.064735 -5.635947,-4.716809c0,0 -0.003748,0 -0.003748,-0.002269c-14.614491,-13.43105 -23.639248,-31.89662 -23.639248,-52.274099c0,-41.069264 36.649891,-74.361522 81.859876,-74.361522c45.211235,0 81.861126,33.292257 81.861126,74.361522zm0,0"/>
   <path stroke="null" id="svg_5" fill="#f74570" d="m123.275427,132.642418c0,16.869091 -0.961807,32.33006 -2.563155,44.360932c-4.54673,-2.303374 -8.829899,-4.989129 -12.793298,-8.009613c-1.961092,-1.49322 -3.838491,-3.064735 -5.635947,-4.716809c0,0 -0.003748,0 -0.003748,-0.002269c-0.778192,-9.484681 -1.216626,-20.239051 -1.216626,-31.632241c0,-38.352873 4.972673,-69.441607 11.107014,-69.441607c6.130589,0 11.10576,31.088734 11.10576,69.441607zm0,0"/>
   <path stroke="null" id="svg_6" fill="#dd2339" d="m107.1845,132.642418c0,13.330067 0.269806,25.780765 0.734473,36.351319c-1.961092,-1.49322 -3.842238,-3.068139 -5.639694,-4.719078c-0.778192,-9.484681 -1.216626,-20.239051 -1.216626,-31.632241c0,-38.349468 4.972673,-69.441607 11.107014,-69.441607c-2.753022,0 -4.985167,31.092138 -4.985167,69.441607zm0,0"/>
   <path stroke="null" id="svg_7" fill="#ffe96e" d="m124.484558,103.590411l17.983319,-23.337826c6.740151,-8.747149 2.478218,-20.94141 -8.598817,-24.512207c-6.355429,-2.048073 -13.797578,-3.612779 -21.700643,-3.612779c-7.904315,0 -15.346464,1.564706 -21.700643,3.612779c-11.077035,3.570797 -15.340219,15.765058 -8.600065,24.512207l17.984563,23.337826"/>
   <path stroke="null" id="svg_8" fill="#ffb93b" d="m98.571946,80.253718l8.070445,23.337826l-6.790118,0l-17.983316,-23.337826c-6.740151,-8.74601 -2.478218,-20.94141 8.598817,-24.511071c6.355429,-2.050342 13.798825,-3.615048 21.700643,-3.615048c-3.546198,0 -6.887546,1.564706 -9.739245,3.615048c-4.972673,3.569661 -6.883801,15.765061 -3.857226,24.511071zm0,0"/>
   <path stroke="null" id="svg_9" fill="#d1e6f2" d="m123.27418,132.641282l-22.212777,0l-2.969113,-30.685927l28.151002,0l-2.969113,30.685927zm0,0"/>
   <path stroke="null" id="svg_10" fill="#93bfd9" d="m107.1845,132.642418l-6.120597,0l-2.970366,-30.687063l7.756924,0l1.334039,30.687063zm0,0"/>
   <path stroke="null" id="svg_11" fill="#dd2339" d="m231.475112,117.285837c-4.399335,0.810154 -8.797423,1.321886 -13.196759,1.540878c-7.680726,0.385788 -15.356457,-0.130487 -23.037182,-1.540878c-1.154168,-17.531737 -1.304061,-35.062338 -0.449677,-52.594074c0.23733,-4.916511 4.970176,-8.693815 10.357553,-8.163928c1.631326,0.159991 3.288883,0.407347 4.935199,0.734131c7.10489,1.410391 14.054893,4.289039 18.464222,7.923377c1.843672,1.520455 2.969113,3.629801 3.109012,5.888921c1.144179,18.180765 1.082972,27.028897 -0.182368,46.211573zm0,0"/>
   <path stroke="null" id="svg_12" fill="#f74570" d="m231.475112,117.285837c-4.399335,0.810154 -8.797423,1.321886 -13.196759,1.540878c-4.399335,-0.218992 -8.79867,-0.730724 -13.200506,-1.540878c-1.154168,-17.531737 -1.305311,-35.062338 -0.453424,-52.594074c0.162382,-3.323437 2.37954,-6.123796 5.459824,-7.429797c7.10489,1.410391 14.056141,4.289039 18.465469,7.923377c1.843676,1.520455 2.969116,3.629801 3.109015,5.888921c1.142928,18.180765 1.081721,27.028897 -0.183618,46.211573zm0,0"/>
   <path stroke="null" id="svg_13" fill="#93bfd9" d="m236.815022,138.957974l0,0.003404c-6.70018,15.640247 -19.058792,28.709337 -34.789978,37.137643c-0.039971,0.021559 -0.079943,0.043118 -0.119914,0.063541c-3.594915,-0.339266 -7.189831,-0.837383 -10.782246,-1.498896c-1.633827,-24.751622 -1.633827,-49.497568 0,-74.245785c3.632386,-0.670587 7.27102,-1.172112 10.905904,-1.511378c11.189453,-1.047295 22.376409,-0.543504 33.56586,1.511378c0.845641,12.847832 1.252849,25.69226 1.220374,38.540092zm0,0"/>
   <path stroke="null" id="svg_14" fill="#d1e6f2" d="m236.815022,138.961378c-6.70018,15.640247 -19.058792,28.709337 -34.789978,37.137643c-1.636324,-25.731974 -1.636324,-51.463948 0.003745,-77.192517c11.189453,-1.047295 22.376409,-0.543504 33.56586,1.511378c0.845645,12.847832 1.252849,25.695665 1.220374,38.543497zm0,0"/>
   <path stroke="null" id="svg_15" fill="#30a4c7" d="m239.871572,130.268696l0,0.003401c-5.893259,21.200115 -21.814311,38.773835 -42.90789,48.325459c-3.461261,1.569246 -7.067416,2.919497 -10.785993,4.033741c-0.550852,-20.375211 -0.15364,-40.75269 1.190395,-61.127904c3.624894,-0.664914 7.249784,-1.190264 10.878426,-1.574916c13.698897,-1.465991 27.401544,-0.941774 41.107936,1.574916c0.193611,2.922902 0.363489,5.842402 0.517126,8.765303zm0,0"/>
   <path stroke="null" id="svg_16" fill="#80ceed" d="m239.871572,130.268696c-5.893259,21.200113 -21.814311,38.777236 -42.90789,48.32886c-0.374729,-19.555982 0.053712,-39.110829 1.282828,-58.66908c13.698897,-1.465991 27.401544,-0.941774 41.107936,1.574916c0.193611,2.922902 0.363489,5.842402 0.517126,8.765303zm0,0"/>
   <path stroke="null" id="svg_17" fill="#ff5c88" d="m223.545816,92.466137c-2.328325,0 -4.21572,-1.713348 -4.21572,-3.828366l0,-15.315731c0,-2.115019 1.887395,-3.829499 4.21572,-3.829499c2.327075,0 4.214467,1.71448 4.214467,3.829499l0,15.315731c0,2.115019 -1.887391,3.828366 -4.214467,3.828366zm0,0"/>
   <path stroke="null" id="svg_18" fill="#151a1c" d="m174.372429,65.900184c1.685038,0 3.050309,-1.24019 3.050309,-2.770856c0,-1.530665 -1.365271,-2.770858 -3.050309,-2.770858l-7.482117,0l0,-4.928992l7.482117,0c1.685038,0 3.050309,-1.24019 3.050309,-2.770856c0,-1.529529 -1.365271,-2.76972 -3.050309,-2.76972l-7.482117,0l0,-4.089341c0,-1.529529 -1.365271,-2.769723 -3.049058,-2.769723c-1.685038,0 -3.050305,1.240193 -3.050305,2.769723l0,4.089341l-7.48212,0c-1.683791,0 -3.049058,1.24019 -3.049058,2.770856c0,1.529529 1.365268,2.76972 3.049058,2.76972l7.48212,0l0,4.928992l-7.48212,0c-1.683791,0 -3.049058,1.240193 -3.049058,2.770858c0,1.530665 1.365268,2.770856 3.049058,2.770856l7.48212,0l0,4.928992l-7.48212,0c-1.683791,0 -3.049058,1.24019 -3.049058,2.769723c0,1.530665 1.365268,2.770856 3.049058,2.770856l7.48212,0l0,4.928992l-7.48212,0c-1.683791,0 -3.049058,1.24019 -3.049058,2.770856c0,1.529532 1.365268,2.769723 3.049058,2.769723l7.48212,0l0,4.928992l-7.48212,0c-1.683791,0 -3.049058,1.24019 -3.049058,2.770856c0,1.529529 1.365268,2.769723 3.049058,2.769723l7.48212,0l0,59.788996c0,1.529529 1.365268,2.76972 3.050305,2.76972s3.050305,-1.24019 3.050305,-2.76972l0,-59.790132l7.48212,0c1.683787,0 3.049058,-1.24019 3.049058,-2.769723c0,-1.530665 -1.365271,-2.770856 -3.049058,-2.770856l-7.48212,0l0,-4.928992l7.48212,0c1.683787,0 3.049058,-1.24019 3.049058,-2.769723c0,-1.530665 -1.365271,-2.770856 -3.049058,-2.770856l-7.48212,0l0,-4.928992l7.48212,0c1.683787,0 3.049058,-1.24019 3.049058,-2.770856s-1.365271,-2.769723 -3.049058,-2.769723l-7.48212,0l0,-4.927857l7.480869,0zm0,0"/>
   <path stroke="null" id="svg_19" fill="#ffb93b" d="m175.712716,185.07764c-4.927707,0.843056 -10.012799,1.283306 -15.212809,1.283306c-1.26534,0 -2.525684,-0.027232 -3.778534,-0.078292c-1.593852,-0.066946 -3.173967,-0.173602 -4.744086,-0.322244c-0.191114,-14.022213 -0.007495,-28.04783 0.550852,-42.07004c1.577617,-0.479966 3.157729,-0.862347 4.734096,-1.138071c5.964459,-1.062048 11.928922,-0.679667 17.893381,1.138071c0.54461,13.727198 0.730726,27.458936 0.5571,41.18727zm0,0"/>
   <path stroke="null" id="svg_20" fill="#ffe96e" d="m175.712716,185.07764c-4.927707,0.843056 -10.012799,1.283306 -15.212809,1.283306c-1.26534,0 -2.525684,-0.027232 -3.778534,-0.078292c-0.187363,-14.511253 -0.006245,-29.022506 0.540862,-43.530355c5.964459,-1.062048 11.928922,-0.679667 17.893381,1.138071c0.54461,13.727198 0.730726,27.458936 0.5571,41.18727zm0,0"/>
  </g>
  <ellipse stroke="#000" opacity="0.35" ry="78.499993" rx="97.000005" id="svg_23" cy="108.5" cx="155.999987" stroke-width="0" fill="#fff"/>
  <ellipse id="svg_28" cy="126" cx="121" stroke-width="1.5" stroke="#000" fill="#fff"/>
  <ellipse id="svg_29" cy="91" cx="222" stroke-width="1.5" stroke="#000" fill="#fff"/>
  <ellipse id="svg_30" cy="40" cx="264" stroke-width="1.5" stroke="#000" fill="#fff"/>
 </g>
</svg>